HIERARCHY
ROOT hip
{
	OFFSET 0.000000 0.000000 0.000000 
	CHANNELS 6 Xposition Yposition Zposition Xrotation Zrotation Yrotation
	JOINT abdomen
	{
		OFFSET 0.000000 3.402643 0.000000 
		CHANNELS 3 Xrotation Zrotation Yrotation
		JOINT chest
		{
			OFFSET 0.000000 8.438565 -0.680529 
			CHANNELS 3 Xrotation Zrotation Yrotation
			JOINT neck
			{
				OFFSET 0.000000 10.207942 -0.272212 
				CHANNELS 3 Xrotation Zrotation Yrotation
				JOINT head
				{
					OFFSET 0.000000 3.130431 0.000000 
					CHANNELS 3 Xrotation Zrotation Yrotation
					End Site
					{
						OFFSET 0.000000 3.130435 0.000000 
					}
				}
			}
			JOINT lCollar
			{
				OFFSET 3.470700 6.669187 -0.816635 
				CHANNELS 3 Yrotation Zrotation Xrotation
				JOINT lShldr
				{
					OFFSET 3.198488 0.000000 0.000000 
					CHANNELS 3 Zrotation Yrotation Xrotation
					JOINT lForeArm
					{
						OFFSET 10.139888 0.000000 0.000000 
						CHANNELS 3 Yrotation Zrotation Xrotation
						JOINT lHand
						{
							OFFSET 8.370511 0.000000 0.000000 
							CHANNELS 3 Zrotation Yrotation Xrotation
							End Site
							{
								OFFSET 4.083176 0.000000 0.000000 
							}
						}
					}
				}
			}
			JOINT rCollar
			{
				OFFSET -3.470700 6.669187 -0.816635 
				CHANNELS 3 Yrotation Zrotation Xrotation
				JOINT rShldr
				{
					OFFSET -3.198488 0.000000 0.000000 
					CHANNELS 3 Zrotation Yrotation Xrotation
					JOINT rForeArm
					{
						OFFSET -10.139888 0.000000 0.000000 
						CHANNELS 3 Yrotation Zrotation Xrotation
						JOINT rHand
						{
							OFFSET -8.370511 0.000000 0.000000 
							CHANNELS 3 Zrotation Yrotation Xrotation
							End Site
							{
								OFFSET -4.083176 0.000000 0.000000 
							}
						}
					}
				}
			}
		}
	}
	JOINT lThigh
	{
		OFFSET 5.308129 -1.633274 1.361059 
		CHANNELS 3 Xrotation Zrotation Yrotation
		JOINT lShin
		{
			OFFSET -2.041588 -20.007561 0.000000 
			CHANNELS 3 Xrotation Zrotation Yrotation
			JOINT lFoot
			{
				OFFSET 0.000000 -19.190928 -1.224953 
				CHANNELS 3 Xrotation Yrotation Zrotation
				End Site
				{
					OFFSET 0.000000 -2.449906 4.627600 
				}
			}
		}
	}
	JOINT rThigh
	{
		OFFSET -5.308129 -1.633274 1.361059 
		CHANNELS 3 Xrotation Zrotation Yrotation
		JOINT rShin
		{
			OFFSET 2.041588 -20.007561 0.000000 
			CHANNELS 3 Xrotation Zrotation Yrotation
			JOINT rFoot
			{
				OFFSET 0.000000 -19.190928 -1.224953 
				CHANNELS 3 Xrotation Yrotation Zrotation
				End Site
				{
					OFFSET 0.000000 -2.449906 4.627600 
				}
			}
		}
	}
}
MOTION
Frames: 13
Frame Time: 0.016667
0.464801 52.693073 -0.248628 -10.995840 0.341650 1.679774 24.145214 1.946898 -0.129537 3.740757 1.308277 -1.894649 -4.737569 3.852286 -0.454958 11.638914 -2.359338 8.053679 -17.417042 -10.974046 -0.570756 -65.206940 13.720309 -26.079233 -23.235039 -5.000000 28.253496 -16.615709 -4.275657 8.715520 14.001765 13.733858 -0.721674 63.824635 -11.110738 -24.434872 24.884460 5.000000 17.639593 13.594510 -25.919523 9.090566 18.747866 12.704386 8.228457 5.970903 -4.664811 -0.649282 -11.374801 4.352174 -5.196140 23.165422 -7.390786 -6.650505 -2.895872 2.768886 -0.103072 -5.010918 -12.495379 6.684599 
0.465968 52.691906 -0.236448 -11.005722 0.331884 1.709069 24.125189 1.945830 -0.150472 3.740980 1.308282 -1.884886 -4.668709 3.873059 -0.448246 11.629551 -2.359395 8.043920 -17.495266 -10.983799 -0.571259 -65.221680 13.791349 -26.177084 -23.223612 -5.000000 28.281176 -16.706917 -4.283315 8.647441 14.041208 13.763114 -0.723186 63.812653 -11.174639 -24.492844 24.904678 5.000000 17.697424 13.629687 -25.920084 8.974374 18.765408 12.713807 8.221929 5.963490 -4.658406 -0.648292 -11.348241 4.344066 -5.265360 23.220524 -7.382579 -6.667359 -2.914880 2.777252 -0.104644 -5.022558 -12.495731 6.705109 
0.466557 52.691315 -0.224954 -11.024904 0.341643 1.718836 24.105894 1.933385 -0.144912 3.721661 1.298519 -1.875121 -4.580895 3.882715 -0.449707 11.611788 -2.349782 8.033763 -17.573591 -11.003302 -0.572265 -65.225426 13.862620 -26.266302 -23.213017 -5.000000 28.273933 -16.770479 -4.319774 8.564697 14.080525 13.782619 -0.724195 63.800728 -11.238582 -24.550783 24.923445 5.000000 17.747087 13.644964 -25.923716 8.879537 18.806702 12.724288 8.235918 5.949359 -4.644105 -0.666549 -11.328102 4.299639 -5.364640 23.279404 -7.392200 -6.669787 -2.946459 2.799016 -0.136762 -5.033816 -12.472719 6.693056 
0.466564 52.691315 -0.214145 -11.034377 0.351404 1.718837 24.096699 1.913709 -0.121496 3.702338 1.278988 -1.884888 -4.482658 3.893833 -0.441534 11.582491 -2.349782 8.033762 -17.632385 -11.022807 -0.573271 -65.226677 13.938693 -26.340460 -23.192835 -5.000000 28.272947 -16.806974 -4.382137 8.475921 14.129609 13.802123 -0.725203 63.791199 -11.298094 -24.621557 24.931295 5.000000 17.791790 13.654211 -25.913708 8.812366 18.829315 12.692102 8.230539 5.933705 -4.648596 -0.655409 -11.295264 4.318966 -5.366292 23.309885 -7.392483 -6.659638 -2.958159 2.800865 -0.137480 -5.062116 -12.524702 6.678443 
0.466572 52.691315 -0.203336 -11.053616 0.361166 1.718839 24.087128 1.888548 -0.111132 3.672823 1.269215 -1.904415 -4.394184 3.904952 -0.432697 11.552794 -2.349725 8.043520 -17.700945 -11.042311 -0.574276 -65.236992 14.010446 -26.416965 -23.168531 -5.000000 28.268543 -16.852280 -4.446033 8.377926 14.168926 13.821627 -0.726211 63.779385 -11.362122 -24.679436 24.943756 5.000000 17.823713 13.668056 -25.901411 8.736662 18.863930 12.694706 8.241728 5.928789 -4.654604 -0.665371 -11.275528 4.267125 -5.446762 23.344307 -7.411421 -6.645304 -2.976386 2.809438 -0.148830 -5.062762 -12.495726 6.701723 
0.465480 52.690731 -0.194140 -11.053554 0.361164 1.728604 24.077692 1.897427 -0.106958 3.673473 1.269229 -1.884891 -4.335810 3.933918 -0.437075 11.542867 -2.359565 8.014649 -17.749975 -11.061815 -0.575282 -65.224609 14.052072 -26.475046 -23.148348 -5.000000 28.264988 -16.842058 -4.485657 8.246707 14.198606 13.850880 -0.727723 63.755253 -11.404185 -24.724947 24.949989 5.000000 17.841415 13.649725 -25.874819 8.705654 18.875216 12.695493 8.222150 5.931349 -4.635686 -0.654980 -11.244845 4.274193 -5.454593 23.357454 -7.402608 -6.642447 -2.973248 2.826954 -0.149558 -5.058840 -12.505219 6.686438 
0.464388 52.690147 -0.184947 -11.063614 0.351403 1.728603 24.058334 1.897329 -0.106626 3.664140 1.269238 -1.875131 -4.276698 3.954691 -0.430361 11.532547 -2.369349 7.995134 -17.789339 -11.091071 -0.576791 -65.220772 14.098238 -26.529030 -23.132952 -5.000000 28.260849 -16.842182 -4.521050 8.125572 14.218650 13.889890 -0.729739 63.720112 -11.446093 -24.759935 24.964224 5.000000 17.847765 13.632896 -25.854342 8.687442 18.877876 12.691770 8.222754 5.921706 -4.615901 -0.663301 -11.230639 4.238708 -5.461273 23.379326 -7.400215 -6.652460 -2.987435 2.840943 -0.141076 -5.051154 -12.537985 6.662603 
0.462661 52.689564 -0.176901 -11.063553 0.351401 1.738368 24.038818 1.888251 -0.110131 3.654798 1.259480 -1.855603 -4.217649 3.985120 -0.425106 11.520877 -2.388804 7.975620 -17.838467 -11.120328 -0.578300 -65.206383 14.135850 -26.578438 -23.117563 -5.000000 28.254156 -16.792797 -4.581016 7.975307 14.248590 13.938648 -0.734611 63.694416 -11.475208 -24.803082 24.973673 5.000000 17.846296 13.611411 -25.861301 8.668319 18.900759 12.693441 8.213566 5.903986 -4.607416 -0.641986 -11.234826 4.274697 -5.454546 23.403519 -7.391637 -6.669481 -2.995312 2.847961 -0.122435 -5.076706 -12.595525 6.626030 
0.460294 52.688972 -0.170003 -11.053431 0.361160 1.748135 24.019058 1.870600 -0.117302 3.645028 1.249712 -1.855602 -4.159347 4.023741 -0.430944 11.509756 -2.398475 7.975620 -17.877832 -11.149585 -0.579808 -65.202621 14.182067 -26.632376 -23.111076 -5.000000 28.247749 -16.695959 -4.656703 7.823699 14.268766 13.987406 -0.737137 63.668388 -11.513124 -24.839931 25.000273 5.000000 17.831743 13.597548 -25.903252 8.648364 18.900541 12.693375 8.193585 5.933241 -4.617284 -0.654359 -11.214676 4.285234 -5.514836 23.422016 -7.400930 -6.692111 -3.006031 2.879165 -0.124441 -5.104042 -12.560830 6.606135 
0.457926 52.688381 -0.163105 -11.043304 0.370919 1.757902 24.009518 1.858092 -0.111664 3.625706 1.230180 -1.845837 -4.110126 4.063825 -0.427150 11.497689 -2.417876 7.965860 -17.926968 -11.178840 -0.581316 -65.187790 14.228601 -26.677664 -23.090891 -5.000000 28.244175 -16.608534 -4.730618 7.672679 14.288947 14.036168 -0.739663 63.633736 -11.546441 -24.881081 25.012758 5.000000 17.829699 13.588318 -25.942913 8.619888 18.894297 12.684740 8.180525 5.930209 -4.605209 -0.653959 -11.170843 4.314217 -5.534323 23.412502 -7.400945 -6.712114 -2.994878 2.877814 -0.104206 -5.125577 -12.591860 6.591230 
0.454425 52.688313 -0.159047 -11.033240 0.380680 1.757903 23.999922 1.826989 -0.113377 3.606385 1.230185 -1.836073 -4.061226 4.054171 -0.425690 11.489278 -2.408204 7.965861 -17.946802 -11.208097 -0.582824 -65.189400 14.253438 -26.720795 -23.077856 -5.000000 28.245571 -16.494591 -4.838664 7.518493 14.309258 14.094676 -0.742694 63.594654 -11.579929 -24.898848 25.036484 5.000000 17.800640 13.557640 -25.954523 8.617910 18.882692 12.683853 8.170136 5.933239 -4.617289 -0.654359 -11.171232 4.317742 -5.576011 23.409025 -7.410564 -6.705196 -2.992738 2.894108 -0.104898 -5.140494 -12.598803 6.564434 
0.450924 52.688232 -0.154987 -11.022942 0.400204 1.748141 24.000158 1.805274 -0.111095 3.587067 1.239957 -1.826311 -4.021409 4.045977 -0.414599 11.479513 -2.408204 7.965861 -17.966742 -11.247105 -0.584835 -65.190498 14.287139 -26.759842 -23.064821 -5.000000 28.249508 -16.389885 -4.944895 7.363963 14.329441 14.143435 -0.745219 63.558025 -11.609031 -24.929440 25.058596 5.000000 17.778545 13.526962 -25.966143 8.615945 18.878368 12.672163 8.137973 5.931921 -4.635839 -0.625735 -11.165721 4.357373 -5.610444 23.389874 -7.439235 -6.723225 -2.973854 2.915179 -0.075286 -5.121897 -12.570289 6.557414 
0.447390 52.688816 -0.151676 -11.003113 0.409965 1.748142 23.980755 1.792524 -0.106018 3.567536 1.239957 -1.826311 -3.972580 4.045978 -0.414599 11.469748 -2.408204 7.965861 -17.976915 -11.286113 -0.586845 -65.181023 14.312299 -26.791925 -23.058327 -5.000000 28.240549 -16.283157 -5.029212 7.213165 14.349761 14.201946 -0.748248 63.519367 -11.633856 -24.951485 25.083931 5.000000 17.740797 13.506963 -25.994404 8.623666 18.870977 12.682939 8.149759 5.934639 -4.647690 -0.645627 -11.163891 4.314672 -5.674847 23.380350 -7.439250 -6.743224 -2.962391 2.913473 -0.064799 -5.132355 -12.589254 6.559011 
